<mxfile host="Electron" agent="Mozilla/5.0 (Macintosh; Intel Mac OS X 10_15_7) AppleWebKit/537.36 (KHTML, like Gecko) draw.io/24.7.17 Chrome/128.0.6613.36 Electron/32.0.1 Safari/537.36" version="24.7.17">
  <diagram id="prtHgNgQTEPvFCAcTncT" name="Page-1">
    <mxGraphModel dx="726" dy="628" grid="1" gridSize="10" guides="1" tooltips="1" connect="1" arrows="1" fold="1" page="1" pageScale="1" pageWidth="827" pageHeight="1169" math="0" shadow="0">
      <root>
        <mxCell id="0" />
        <mxCell id="1" parent="0" />
        <mxCell id="6AMPjEP5He6ajQMBUXJO-12" value="" style="rounded=1;whiteSpace=wrap;html=1;arcSize=8;align=center;" vertex="1" parent="1">
          <mxGeometry x="120" y="40" width="160" height="200" as="geometry" />
        </mxCell>
        <mxCell id="6AMPjEP5He6ajQMBUXJO-13" value="UI" style="rounded=1;whiteSpace=wrap;html=1;fillColor=#e1d5e7;strokeColor=#9673a6;" vertex="1" parent="1">
          <mxGeometry x="130" y="70" width="140" height="50" as="geometry" />
        </mxCell>
        <mxCell id="6AMPjEP5He6ajQMBUXJO-14" value="App Logic" style="rounded=1;whiteSpace=wrap;html=1;fillColor=#dae8fc;strokeColor=#6c8ebf;" vertex="1" parent="1">
          <mxGeometry x="130" y="126.5" width="140" height="50" as="geometry" />
        </mxCell>
        <mxCell id="6AMPjEP5He6ajQMBUXJO-15" value="Client App" style="text;html=1;align=center;verticalAlign=middle;whiteSpace=wrap;rounded=0;" vertex="1" parent="1">
          <mxGeometry x="170" y="40" width="60" height="30" as="geometry" />
        </mxCell>
        <mxCell id="6AMPjEP5He6ajQMBUXJO-16" value="Data" style="rounded=1;whiteSpace=wrap;html=1;fillColor=#d5e8d4;strokeColor=#82b366;" vertex="1" parent="1">
          <mxGeometry x="130" y="183" width="140" height="47" as="geometry" />
        </mxCell>
        <mxCell id="6AMPjEP5He6ajQMBUXJO-17" value="" style="rounded=1;whiteSpace=wrap;html=1;arcSize=8;align=center;" vertex="1" parent="1">
          <mxGeometry x="320" y="40" width="160" height="200" as="geometry" />
        </mxCell>
        <mxCell id="6AMPjEP5He6ajQMBUXJO-18" value="API" style="rounded=1;whiteSpace=wrap;html=1;fillColor=#ffe6cc;strokeColor=#d79b00;" vertex="1" parent="1">
          <mxGeometry x="330" y="70" width="140" height="50" as="geometry" />
        </mxCell>
        <mxCell id="6AMPjEP5He6ajQMBUXJO-19" value="Middleware" style="rounded=1;whiteSpace=wrap;html=1;fillColor=#f8cecc;strokeColor=#b85450;" vertex="1" parent="1">
          <mxGeometry x="330" y="126.5" width="140" height="50" as="geometry" />
        </mxCell>
        <mxCell id="6AMPjEP5He6ajQMBUXJO-20" value="Backend" style="text;html=1;align=center;verticalAlign=middle;whiteSpace=wrap;rounded=0;" vertex="1" parent="1">
          <mxGeometry x="370" y="40" width="60" height="30" as="geometry" />
        </mxCell>
        <mxCell id="6AMPjEP5He6ajQMBUXJO-21" value="Data" style="rounded=1;whiteSpace=wrap;html=1;fillColor=#d5e8d4;strokeColor=#82b366;" vertex="1" parent="1">
          <mxGeometry x="330" y="183" width="140" height="47" as="geometry" />
        </mxCell>
        <mxCell id="6AMPjEP5He6ajQMBUXJO-22" value="" style="rounded=1;whiteSpace=wrap;html=1;arcSize=8;align=center;" vertex="1" parent="1">
          <mxGeometry x="520" y="40" width="160" height="200" as="geometry" />
        </mxCell>
        <mxCell id="6AMPjEP5He6ajQMBUXJO-23" value="API" style="rounded=1;whiteSpace=wrap;html=1;fillColor=#ffe6cc;strokeColor=#d79b00;" vertex="1" parent="1">
          <mxGeometry x="530" y="70" width="140" height="50" as="geometry" />
        </mxCell>
        <mxCell id="6AMPjEP5He6ajQMBUXJO-24" value="Middleware" style="rounded=1;whiteSpace=wrap;html=1;fillColor=#f8cecc;strokeColor=#b85450;" vertex="1" parent="1">
          <mxGeometry x="530" y="126.5" width="140" height="50" as="geometry" />
        </mxCell>
        <mxCell id="6AMPjEP5He6ajQMBUXJO-25" value="Mock 3rd Party" style="text;html=1;align=center;verticalAlign=middle;whiteSpace=wrap;rounded=0;" vertex="1" parent="1">
          <mxGeometry x="545" y="40" width="110" height="30" as="geometry" />
        </mxCell>
        <mxCell id="6AMPjEP5He6ajQMBUXJO-26" value="Data" style="rounded=1;whiteSpace=wrap;html=1;fillColor=#d5e8d4;strokeColor=#82b366;" vertex="1" parent="1">
          <mxGeometry x="530" y="183" width="140" height="47" as="geometry" />
        </mxCell>
        <mxCell id="6AMPjEP5He6ajQMBUXJO-29" value="Local Data Storage" style="rounded=1;whiteSpace=wrap;html=1;fillColor=#f5f5f5;fontColor=#333333;strokeColor=#666666;" vertex="1" parent="1">
          <mxGeometry x="130" y="280" width="140" height="47" as="geometry" />
        </mxCell>
        <mxCell id="6AMPjEP5He6ajQMBUXJO-30" value="Database" style="rounded=1;whiteSpace=wrap;html=1;fillColor=#f5f5f5;fontColor=#333333;strokeColor=#666666;" vertex="1" parent="1">
          <mxGeometry x="330" y="280" width="140" height="47" as="geometry" />
        </mxCell>
        <mxCell id="6AMPjEP5He6ajQMBUXJO-31" value="Database" style="rounded=1;whiteSpace=wrap;html=1;fillColor=#f5f5f5;fontColor=#333333;strokeColor=#666666;" vertex="1" parent="1">
          <mxGeometry x="530" y="280" width="140" height="47" as="geometry" />
        </mxCell>
        <mxCell id="6AMPjEP5He6ajQMBUXJO-32" value="" style="outlineConnect=0;fontColor=default;gradientColor=none;fillColor=#232F3D;strokeColor=none;dashed=0;verticalLabelPosition=bottom;verticalAlign=top;align=center;html=1;fontSize=1;fontStyle=0;aspect=fixed;pointerEvents=1;shape=mxgraph.aws4.user;strokeWidth=1;shadow=0;" vertex="1" parent="1">
          <mxGeometry x="20" y="115" width="73" height="73" as="geometry" />
        </mxCell>
        <mxCell id="6AMPjEP5He6ajQMBUXJO-33" value="" style="triangle;whiteSpace=wrap;html=1;rotation=90;fillColor=#f5f5f5;fontColor=#333333;strokeColor=#666666;" vertex="1" parent="1">
          <mxGeometry x="190" y="220" width="20" height="80" as="geometry" />
        </mxCell>
        <mxCell id="6AMPjEP5He6ajQMBUXJO-34" value="" style="triangle;whiteSpace=wrap;html=1;rotation=90;fillColor=#f5f5f5;fontColor=#333333;strokeColor=#666666;" vertex="1" parent="1">
          <mxGeometry x="390" y="220" width="20" height="80" as="geometry" />
        </mxCell>
        <mxCell id="6AMPjEP5He6ajQMBUXJO-36" value="" style="triangle;whiteSpace=wrap;html=1;rotation=90;fillColor=#f5f5f5;fontColor=#333333;strokeColor=#666666;" vertex="1" parent="1">
          <mxGeometry x="590" y="220" width="20" height="80" as="geometry" />
        </mxCell>
      </root>
    </mxGraphModel>
  </diagram>
</mxfile>
